<?xml version="1.0" encoding="UTF-8"?><svg id="Layer_2" xmlns="http://www.w3.org/2000/svg" viewBox="0 0 1432.74 493.47"><g id="Layer_1-2"><path d="M92.4,428.44c-28,0-54.14-12.76-71.87-33.6-3.42-3.73-6.22-8.09-9.02-12.45,0,0-11.51-20.22-11.51-26.13,0-2.18.62-4.98,3.11-4.98.62,0,1.24,0,1.87.31,9.65,3.11,19.6,7.16,29.87,7.78l8.4.62c4.36.93,4.98,3.11,4.98,7.16,0,2.8-1.56,5.29-1.56,8.09,0,5.29,3.11,12.45,5.6,16.8,9.33,15.87,29.87,17.42,46.36,17.42,25.51,0,48.22-14.93,48.22-42.31,0-21.47-6.53-36.4-30.18-36.4-13.69,0-27.38,4.36-40.45,7.78-6.22,1.56-12.44,3.73-18.98,3.73-19.6,0-40.76-47.29-40.76-64.09,0-45.42,47.29-75.6,88.98-75.6,16.8,0,40.76,4.67,54.45,14.31,2.49,1.87,4.04,4.04,6.22,6.22,1.56,1.56,5.29,3.73,5.29,6.22s-2.18,4.36-4.04,5.29c-4.36,2.18-9.33,3.11-13.69,5.29-7.16,3.42-13.69,8.4-20.85,11.2-.31,0-.93.31-.93.31-5.91,0-7.47-29.25-35.47-29.25-19.91,0-47.29,6.84-47.29,31.73,0,19.6,8.71,38.58,30.8,38.58,9.65,0,18.67-2.49,28-4.67,9.02-2.18,27.07-8.09,35.47-8.09,6.22,0,14.31,10.27,19.6,17.11l2.8,3.73c7.47,9.65,20.54,26.76,20.54,39.2,0,49.47-46.05,88.67-93.96,88.67Z" style="fill:#99211f;"/><path d="M332.59,360.3c-2.49,25.82-28.31,66.58-56.94,66.58-1.24,0-7.16-.93-7.16-2.49,0-4.98,31.73-23.96,31.73-63.47,0-25.51-12.44-53.51-41.69-53.51-14.62,0-27.07,3.73-27.07,20.85v24.27c0,8.09-.31,16.49-.31,24.58v12.76c0,8.09,0,16.8,1.56,22.71.62,2.8,2.49,6.53,2.49,9.33s-3.11,3.11-5.29,3.11c-7.16,0-14.62-.31-22.09-.31-3.11,0-5.91.31-9.02.31-2.8,0-4.36-1.56-4.36-4.36v-1.56c1.56-13.38,2.18-26.76,2.18-40.45v-107.96c0-14.31-10.89-28.31-10.89-33.29,0-5.6,38.27-32.67,44.8-32.67,4.04,0,4.36,4.67,4.36,7.78,0,18.05-3.11,35.78-3.11,53.83,0,13.07.62,26.13,1.24,39.2,5.29-6.84,26.13-32.05,33.91-32.05,6.22,0,14.31,1.87,20.22,4.04,29.87,11.2,46.05,38.27,46.05,69.69,0,4.36-.31,8.71-.62,13.07Z" style="fill:#99211f;"/><path d="M451.76,417.86c-4.67,2.49-10.89,8.09-16.18,8.09-9.33,0-17.73-17.73-23.33-17.73-5.91,0-40.76,17.73-48.85,17.73-6.84,0-25.51-29.25-25.51-36.4,0-11.51,71.25-50.71,74.36-57.87.31-.93.31-1.87.31-2.8,0-10.27-10.27-19.6-19.91-19.6-11.82,0-25.2,5.6-34.54,12.76-4.36,3.42-8.4,7.47-12.76,10.89-1.24,1.24-2.18,1.56-4.04,1.56s-3.73-.93-3.73-3.11c0-.62,0-1.56.31-2.18,13.07-12.44,26.45-24.27,40.14-36.09,6.84-5.91,13.38-13.38,21.16-18.36.31-.31.93-.31,1.56-.31,10.89,0,42.94,15.87,47.6,25.51.93,2.18.93,35.47.93,60.36v25.82c0,6.22,1.56,11.51,7.47,14,2.18.93,11.51,1.87,11.51,4.67,0,3.11-13.38,11.51-16.49,13.07ZM373.66,381.15c0,17.42,15.25,21.78,29.87,21.78h3.42c3.42,0,6.53-.31,6.53-4.67,0-19.29-.31-38.89-.31-58.18-9.65,6.84-39.51,29.87-39.51,41.07Z" style="fill:#99211f;"/><path d="M597.98,425.64c-4.04-1.56-8.71-4.98-13.38-9.33-6.53-5.91-12.45-13.38-16.49-18.05-6.53,4.98-44.8,28.94-50.71,28.94-16.49,0-36.71-22.4-42.94-36.4-5.29-11.82-9.64-31.74-9.64-44.49,0-4.04.31-8.09,1.87-12.13,4.98-13.38,57.56-60.67,71.87-60.67,11.82,0,26.45,11.51,33.91,19.91-.31-21.16.93-49.47-6.53-69.07.93-6.22,33.6-18.98,40.13-18.98,3.11,0,3.11,4.98,3.11,7.16,0,52.89-1.24,106.09-1.24,159.3,0,20.22,18.04,25.82,18.04,30.49,0,6.53-22.09,20.53-28,23.33ZM572.47,334.48c-.62-14.31-23.33-40.45-38.27-40.45-22.4,0-37.96,33.6-37.96,52.89,0,21.78,17.42,51.34,41.69,51.34,11.82,0,34.54-5.29,34.54-20.22l.31-24.27c0-6.53,0-13.07-.31-19.29Z" style="fill:#99211f;"/><path d="M621.32,354.08c0-7.78.93-15.56,2.18-23.02,3.42-18.67,60.36-59.74,79.03-59.74,7.16,0,20.22,6.84,26.13,10.89,19.91,13.69,37.65,45.74,37.65,70,0,8.4-2.18,14.93-6.53,22.4-9.96,16.49-54.14,52.58-74.05,52.58h-1.56c-24.58-.93-62.85-48.85-62.85-73.12ZM675.76,305.86c-14,0-34.54,12.76-34.54,28.31,0,23.33,37.02,62.85,60.67,62.85,16.8,0,42.31-9.02,42.31-29.25,0-31.73-38.27-61.91-68.45-61.91Z" style="fill:#99211f;"/><path d="M911.91,394.53c-3.73,4.98-25.51,32.05-29.87,32.05-1.56,0-3.11-3.73-3.73-4.98-2.49-6.53-4.36-13.69-6.53-20.53-4.67-14-9.33-28.31-13.69-42.62l-28,42.31c-4.98,7.78-10.27,15.56-16.18,22.71-1.24,1.56-2.8,2.8-4.67,2.8s-3.11-1.24-4.04-2.8l-4.98-20.53c-5.29-20.53-19.91-74.98-31.11-90.85-4.04-5.6-12.76-4.36-12.76-10.58,0-4.67,21.16-24.89,25.82-24.89,13.07,0,24.58,26.45,28,37.02,8.71-4.36,26.13-35.47,38.58-35.47,15.56,0,26.76,24.27,30.49,37.02,4.98-7.47,22.71-33.29,30.18-35.16,3.11-.62,6.84-.62,9.96-.62,22.4,0,32.05,14.62,32.05,35.47,0,18.36-19.6,53.2-39.51,79.65ZM838.49,317.99c-2.49-1.87-4.36-2.8-7.47-2.8-2.18-.31-4.04-.31-6.22-.31-2.49,0-12.76,0-12.76,4.04,0,6.53,6.22,28.94,11.82,47.29l7.16,23.02,25.2-37.96c0-9.96-10.89-28-17.73-33.29ZM901.64,308.35c-8.71,0-15.87,4.98-20.22,12.13l22.09,70.31c12.13-15.25,21.16-40.14,21.16-59.74,0-12.76-10.27-22.71-23.02-22.71Z" style="fill:#99211f;"/><path d="M1152.1,269.14c-.62.31-1.25.31-1.87.31-3.42,0-8.09-12.76-9.64-15.56-8.09-13.38-19.6-19.29-34.85-19.29-23.02,0-29.87,25.82-29.87,44.49,0,6.22-1.87,12.13-1.87,18.05,0,3.11,4.67,6.22,7.47,6.22l35.16-.93c4.36,0,8.09-2.18,12.45-2.18h19.29c1.25.93,1.25,2.18,1.25,3.73,0,4.04-7.78,23.33-10.27,26.45h-1.56c-12.13,0-24.27-.31-36.4-.31-7.16,0-14.31.31-21.47.31-4.36,0-5.29,8.71-5.29,16.18,0,4.67.31,8.71.31,10.58,0,13.38-1.24,26.76-1.24,40.45,0,31.73-12.76,62.23-38.27,81.83-3.73,3.11-21.47,14-25.2,14-2.18,0-3.42-2.8-3.42-4.36,0-4.67,33.91-34.54,33.91-69.07,0-26.76-.31-53.51-.31-80.58v-2.49c0-3.11-.31-6.84-3.42-6.84-8.09,0-16.18,2.49-24.27,2.49-5.29,0-7.47-2.8-7.47-8.09,0-6.22,1.87-12.76,3.11-18.98,1.56-1.24,5.6-1.24,7.47-1.24,4.98,0,9.64.62,14.62.62,5.91,0,7.16-2.18,7.16-7.78,0-13.69-2.18-27.69-4.98-40.76l.31-1.56c10.27-12.45,53.2-37.34,68.76-46.36,4.67-2.8,11.51-7.78,17.11-7.78,15.56,0,46.05,18.98,54.45,32.05.93,1.56,2.49,4.67,2.49,6.53,0,4.36-19.6,25.2-23.65,29.87Z" style="fill:#99211f;"/><path d="M1153.65,354.08c0-7.78.93-15.56,2.18-23.02,3.42-18.67,60.36-59.74,79.03-59.74,7.16,0,20.22,6.84,26.13,10.89,19.91,13.69,37.65,45.74,37.65,70,0,8.4-2.18,14.93-6.53,22.4-9.96,16.49-54.14,52.58-74.05,52.58h-1.56c-24.58-.93-62.85-48.85-62.85-73.12ZM1208.1,305.86c-14,0-34.54,12.76-34.54,28.31,0,23.33,37.02,62.85,60.67,62.85,16.8,0,42.31-9.02,42.31-29.25,0-31.73-38.27-61.91-68.45-61.91Z" style="fill:#99211f;"/><path d="M1414.07,319.86c-3.11,0-17.11-10.58-26.76-10.58s-12.13,4.98-12.13,12.76v42.94c0,15.87,23.02,25.82,36.4,25.82,3.11,0,5.91-3.73,9.02-3.73,2.8,0,4.67,3.73,4.67,6.22,0,5.29-23.02,30.8-28.31,30.8-9.02,0-40.14-27.69-44.18-27.69-5.6,0-44.18,43.25-55.38,43.25-2.8,0-7.16-3.73-7.78-6.84,9.64-9.02,47.91-46.67,47.91-58.18v-39.82c0-22.71-44.49-19.6-44.49-27.38,0-.62.31-1.24.93-1.87,2.18-2.8,4.04-5.6,5.91-9.02,1.87-4.04,8.4-21.78,13.38-21.78,9.02,0,40.45,34.53,46.05,34.53,5.91,0,31.74-32.36,38.58-32.36,8.09,2.49,32.98,13.07,34.85,22.09,0,4.67-13.69,20.85-18.67,20.85Z" style="fill:#99211f;"/><path d="M853.12.22c.12.07.19.48.76.74s1.92.33,2.25.67c.15.15.42,1.13.61,1.5.83,1.62,1.34,3.13,1.91,4.93,3.64,11.59,6.09,23.3,10.2,34.83,2.02,5.66,4.17,11.45,6.34,16.98,1.8,4.61,4.74,9.06,7.06,13.44,1.6.59,3.24,1.12,4.9,1.54,8.73,2.19,17.73,1.76,26.65,2.51,9.94.84,20.01,2.76,29.97,3.02,2.81.07,5.75.58,8.43.6,2.87.03,5.06-.11,8.02.22,9.5,1.05,20.1,1.09,29.79,1.19,8.15.08,15.24.72,23.35,1.52,4.46.44,8.97.84,13.43,1.07,2.91.15,6.16,1.01,9.06,1.03,7.85.04,14.78.38,22.55,1.57,1.22.19,2.84.06,3.91.31.4.09,2.64,1.26,2.89,1.53.73.79.37,1.66.52,2.49.08.45.61.93.58,1.43-.02.43-.49.58-.68.91-1.99,3.55-8.32,8-12.05,9.67-4.42,1.98-8.69,3.86-13.01,6.09-1.42.73-2.79,1.61-4.22,2.32l4.9.82c1.23.71,2.7.69,4,.98.18.04.25.49.55.7.99.68,2.52.78,3.82,1.81.86.67,2.91,2.7,3.16,3.68.12.47.12,1.85.04,2.35-.04.23-.81,2.61-.89,2.73-.32.41-1.16.63-1.71,1.31-.41.51-.65,1.4-1.02,1.79-.23.25-2.5,1.96-3.04,2.39-6.61,5.23-14.85,8.81-22.73,11.6-7.18,2.55-14.36,5.93-21.42,9.01-2.93,1.28-6.19,2.53-9.16,3.96-5.06,2.45-9.71,5.26-14.74,7.68-2.08,1-4.54,1.7-6.55,2.9-.56.33-1.45,1.31-1.77,1.45-.51.23-1.31.15-1.99.43-1.02.42-2.13,1.47-3.06,1.97-8.16,4.4-17.1,7.66-25.67,11.52-2.79,1.26-5.97,2.28-8.84,3.42-1.83.73-3.23,1.52-5.03,2.41-5.54,2.75-10.83,5.73-16.54,8.19-5.58,2.4-11.04,5.46-16.45,8.13-2.76,1.36-2.84,1.12-4.86,3.54-2.45,2.93-3.88,6.01-5.96,9.01-.79,1.14-.15,2.93-.07,4.25.13,2.11.04,3.96.54,6.09.41,1.75.93,3.32,1.26,5.18.64,3.65,1.74,7.36,2.53,10.94.46,2.1,1.14,4.4,1.48,6.56.29,1.89.07,2.35.78,4.24.57,1.51.72,3.34,1.18,4.85.28.9.56,1.35.89,2.53.44,1.59.9,1.45.14,3.38-.97,2.42-4.61,5.87-6.84,7.04-2.81,1.48-5.93.05-7.4-2.52-.7-1.22-1.45-3.37-2.19-4.88-1.52-3.12-2.09-6.69-2.93-10.14-1.36-5.57-2.54-11.31-3.77-16.74s-1.5-10.68-2.22-16.27c-.11-.83-.54-1.7-.56-2.47-.03-1.12.47-2.26.61-3.23.68-4.6.53-12.33,4.73-15.37,13.2-9.54,27.66-17.23,42.55-24.2l5.81-2.53c-2.25.11-4.52.26-6.77.32-.9.03-2.03-.26-3-.14-.38.05-.27.4-.37.4-1.8-.11-4.57-.08-6.2-.43-5.54-1.17-11.41-.56-17.14-1.36-2.46-.34-2.79-.43-5.08-1.15-1.6-.5-2.47-.12-3.91-.92-2.16-1.2-4.13-2.57-6.21-3.83-1.15-.69-3.96-1.51-4.5-2.75-.11-.24.03-.94.11-1,.06-.04,1.04.41,1.41.2l-.2-.6c1.82-.9,3.78,1.48,5.17,1.76.74.15,1.54-.03,2.32.09.96.15,2.31.81,3.37,1.06,7.1,1.67,18.49,1.05,25.79.05,4.24-.58,8.57-.73,12.92-1.16,13.23-1.3,27.07-5.48,39.91-8.95,1.74-.47,3.73-.6,5.43-1.21,4.4-1.58,8.83-4.28,13.09-6.01,3.54-1.43,6.82-3.81,10.3-5.59,2.56-1.31,4.31-1.96,6.98-3.07,1.39-.58.4-.64,2.32-.53.09,0,.06-.3.24-.36,1.72-.56,2.08-.44,3.72-1.36,2.62-1.46,7.77-2.64,10.81-4.58l7.63-2.72-9.31.72c-2.65-.39-5.91-.58-7.88-2.53-.39-.38-1.95-2.28-2.28-2.75-1.97-2.81-.93-5.94-.63-9.12-2.69.2-5.22-.7-7.8-1.14-3.67-.63-8.46-1.78-12-2.07-2.07-.17-4.34.13-6.43,0-3.17-.2-6.35-1.08-9.65-1.21-2.64-.11-5.27.26-7.85.21-5.05-.1-9.81-1.31-15.09-1.21-1.4.03-3.15.87-4.01-.8l.3,1.01c-1.49-.18-3.02-.09-4.52-.2-2.82-.21-5.9-.87-8.68-.93-5.65-.11-11.35.33-17.06.12s-11.68.07-17.5-.19c-3.15-.14-6.53-.89-9.64-.97-2.57-.07-5.69.41-8.23.37-3.52-.05-7.12-.89-10.66-1.02-3.75-.14-7.58.45-11.28.22-2.69-.17-5.31-1.06-8.04-1.21-2.13-.12-4.23.23-6.23.22-5.06-.03-10.28-1.71-15.28-1.42-3.97.23-7.15.31-11.09.19-6.16-.2-12.3-.7-18.5-.72-3,0-5.76-.09-8.79-.5-2.04-.27-5.72-.74-7.57-1.28-.85-.25-3.82-2.45-4.76-3.09-1.65-1.13-2.07-1.16-3.05-3.18-1.1-2.27-1.92-4.72-2.8-7.05-.5-1.32-2.3-2.96-3-4.13-1.17-1.95-4.26-9.94-5.35-10.95-1.53-1.41-2.52-4.53-3.51-6.63-2.73-5.76-6.3-11.05-8.75-16.98-1.58-3.83-2.95-5.88-4.94-9.33-.31-.54-1.14-3.07-1.74-3.09-.91,2.01-1.28,4.19-1.97,6.28-.86,2.59-2.52,4.82-3.45,7.41-4.01,11.24-7.18,23.21-10.83,34.6-1.72,5.36-3.31,10.27-4.38,15.92-.88,4.65-1.63,8.61-3.14,13.14-.26.76-1.14,2.35-1.22,3-.11.8.81,1.58-.05,2.36-.18.16-3.16,1.84-3.36,1.88-2.36.45-3.28-3.02-4.31-4.46-1.87-2.63-4.62-5.26-6.36-8.11-1.43-2.33-2.92-5.29-4.25-7.66-3.97-7.05-7.46-14.27-11.42-21.29-1.06-1.88-2.05-3.05-3.23-4.81-2.1-3.13-3.18-6.53-4.62-9.85-.14-.33-.46-.65-.54-.88-.16-.46.48-.59-.45-.63-1.14-1.84-2.17-3.8-3.32-5.64-.74-1.18-.35.12-.37.33-.44,4.76-1.39,10.21-1.41,14.91,0,.4.43.24.42.39l-.41.7c.98.04.03.49-.1.81s-.09,1.67-.12,2.08c-.04.52-.59,1.6.22,1.54v.19c-.15-.02-.31,0-.39.15s-.42,2.17-.41,2.35c0,.12.37.1.41.24.2.71-.33.65-.39.83-.48,1.55-.9,3.77-1.2,5.4-1.12,6.08-1.3,13.3-1.65,19.68-.51,9.21-.21,18.5-.58,27.74-.02.49-.52,1,.2.91.1.34-.36.08-.4.32.09,1.1.04,2.3,0,3.41-.37,9.46-.23,19.34-.02,28.76.02.99-.51,2.06.43,2.79-.67.16-.16.38-.19.99-.02.33-.26.74-.23.99.02.14.41.11.42.24.02.33-.32,2.13-.43,2.58-.1.42-.62,1.1-.6,1.42,0,.11.43.12.42.2-.02.18-.36.56-.37,1.01-.02,1.11.47,2.71.51,3.58.03.5-.34,1.31-.35,1.86-.03,1.48.12,2.97.14,4.37.02,1.63-.55,3.65-.47,5.24.17,3.51.74,7.22.87,10.71.04,1.07-.28,2.85-.15,3.8.05.39.43.29.42.38-.03.23-.36.55-.37,1.01-.02,1.11.36,2.74.37,3.83.01.66-.34,1.16-.41,1.8-.14,1.27.28,2.67.22,3.82-.03.52-.37.93-.43,1.6-.1,1.15.41,2.08.39,3.01,0,.5-.32,1.12-.36,1.65-.39,5.14-.27,10.66-.22,15.86.07,6.43,1.48,13.32.04,19.74-.3,1.35-.46,1.29-.86,2.36-.5,1.32-.81,3.34-1.69,4.34-1.09,1.24-4.95,1.36-6.59,1.65-2.98.53-4.71,1.33-7.9.71-.22-.04-3.71-1.86-3.87-2.02-.22-.21-1.59-2.28-1.74-2.58-.6-1.28.17-2.45.28-3.7.23-2.51-.12-5.17-.22-7.61-.15-3.63-.54-7.28-.71-10.91-.35-7.59,1.21-14.65.94-22.29-.28-7.8-1.01-15.53-1.22-23.32-.19-6.89-.23-13.61.23-20.49s.49-14.5.97-21.73c.34-5.21.81-10.75,1.2-16.09.26-3.65-.07-7.28.04-11.03.32-10.53-.7-21.22,1.2-31.77-.33-5.05.58-10.03.8-15.06.02-.5.56-1.2-.2-1.11v-.2c.72.09.32-1.11.4-1.71.9-6.6,2.07-13.01,2.79-19.72.35-3.26,1.25-4.54,1.98-7.46.34-1.35.26-3.02.5-4.32.71-3.85,2.11-7.72,2.71-11.56.43-2.78.64-5.01,1.21-7.83.41-2-.22-1.79,1.26-3.57.76-.92.88-1.26,1.43-2.38.96-1.95,1.96-3.58,4.35-3.9,1.15-.15,1.54.35,2.36.35.91,0,1.78-.53,3.03-.41.48.04,2.73.99,3.37,1.26.29.12.24.47.5.56.16.06.5-.07.62.02.25.19-.06,1.53.35,2.18.37.58.77,1.18,1.16,1.84,1.25,2.11,3.09,3.84,3.85,6.21,1.51,4.68,2.17,5.91,4.79,10.07s4.61,9.59,7.04,14.28c2.94,5.68,5.94,11.13,9.4,16.49.25.39,1.1,1.02,1.28,1.38.26.53.3,1.59.57,2.24.67,1.64,2.5,5.4,3.59,6.66.49.57.82.19.93-.42.15-.79.33-1.02.4-1.38.06-.29-.27-.84-.15-1.35.03-.12.81-1.81,1-2.21.38-.8.84-2.67,1.22-3.84,2.32-7.15,4.79-14.52,7.33-21.62,1.98-5.56,5.21-10.72,6.92-16.6,1.31-4.51,2.28-7.99,4.19-12.3,1.31-2.96,2.88-6.69,4.49-9.38.18-.3.11-.8.31-.94.46-.34,2.04-.47,2.69-.69,1.33-.44,2.46-1.89,4.07-1.28.17.07.16.38.29.39.29.04.74-.23,1.17-.22,1.11.03,3.35.81,4.31,1.34,2.72,1.49,2.58,2.37,3.86,4.78,2.22,4.17,4.33,8.48,6.36,12.74,3.83,8.07,6.84,17.17,12.6,23.99l5.04,7.21c.36-.18,1.35-4.3,1.62-5.02.85-2.35,2.12-5.51,3.31-7.7,2.88-5.32,5.42-12.87,7.8-18.79,1.54-3.84,2.58-7.92,4.22-11.54,1.87-4.16,2.72-9.44,4.93-13.48.17-.31,1.17-2.07,1.26-2.16.29-.31,2.08-.79,2.55-.76.78.04,1.93.28,2.85.37,1.1.11,2.81,2.1,3.43,3.02,1.06,1.57,1.39,3.44,2.25,4.99.33.59.96,1.04,1.17,1.44,1.32,2.51,1.6,6.71,3.05,9.21.35.61.95.93,1.24,1.37.16.24,2.04,3.92,2.11,4.14.65,2.11,2.31,4.14,3.3,6.33.87,1.9,1.63,4.15,2.49,6.11,1.4,3.19,2.69,5.72,3.65,9.06.63,2.19,1.75,3.72,2.65,5.59.32.66.45,1.84.73,2.45.1.23.33.2.5.15s1.21-2.66,1.47-3.15c3.33-6.25,6.01-12.15,9.05-18.49,3.51-7.33,7.35-14.62,11.19-21.78.96-1.78,4.99-9.18,6.13-10.15.37-.32.91-.4,1.27-.68.23-.19.87-1.11,1.11-1.2.94-.34,1.39-.15,2.21.11.13.04.35-.12.42-.07Z" style="fill:#99211f;"/><path d="M732.77,171.48c-.5.7-1.01,2.15-1.67,2.65-1.89,1.41-6.42,2.19-8.65,1.62-.94-.24-6.29-3.41-6.92-4.13-2.66-3.04-1.99-7.03-.35-10.38.19-.39.61-1.28.84-1.57.7-.89,4.23-2.49,5.38-2.66.8-.12,1.6.04,2.36-.05,1.42-.17,3.73-.85,5.11-.28.79.32,5.07,2.81,5.72,3.33.12.1,1.58,2.06,1.63,2.19.59,1.75-1.1,6.35-2.14,7.89-.39.58-1.06,1.07-1.31,1.41Z" style="fill:#99211f;"/><path d="M819.5,186.62c-1.97,1.74-4.91,2.58-7.12,3.89-2.56,1.52-5.57,2.69-8.27,4.14-3.93,2.1-7.44,4.66-11.3,6.79-1.87,1.03-3.89,1.86-5.76,2.9-1.13.28-3.17-2.05-3.87-2.93-.78-.97-1.25-1.6-1-2.95.4-2.12,6.24-3.71,8.03-4.44,4.8-1.95,9.45-4.37,14.43-6.28,2.87-1.1,6.58-1.98,9.24-3.23,1.06-.5,2.86-2.1,3.67-2.36.61-.19,1.26,0,1.88-.13.73-.15,2.25-.94,3.08-.96.46-.01.67.38.98.4s1.78-1.01,1.91-.29c.2,1.04-3.35,2.88-4.12,3.52-.68.56-1.23,1.44-1.78,1.93Z" style="fill:#99211f;"/><path d="M813.21,177.12c-.37.32-1.08,1.52-1.42,1.75-2.14,1.43-6.47,2.42-8.95,3.06s-5.41,2.54-7.86,3.6c-5.03,2.17-10.35,3.73-15.47,5.64-.93.35-2.48,1.73-3.52,1.12-.08-.05-.23-.48-.43-.67-1.67-1.48-3.61-3.06-1.79-5.39.81-1.04,3.54-1.47,4.84-1.96,8.18-3.04,16.87-4.85,25.33-7.28,3.99-1.14,5.58-2.71,10.09-2.57.5.02,1.07-.49,1.63.02,1.34,1.21-1.88,2.2-2.45,2.69Z" style="fill:#99211f;"/><path d="M824.84,197.79c-.31.55.23,1.16-.87,2.25-.38.38-3.26,2.61-3.55,2.68-1.1.27-.67-.14-1.67.53-4.76,3.15-9.3,7.69-14.08,11.06-.72.51-1.72.83-2.47,1.35-1.21.84-2.43,1.93-3.56,2.88-.84.39-3.11-1.71-3.58-2.44-.71-1.11-.78-1.95-.19-3.14,1.07-2.15,7.46-6.47,9.75-7.95,4.88-3.15,10.54-5.41,15.32-8.41,2.13-1.34,4.16-3.04,6.65-3.8.79-.24,1.23.05,1.89.04.44,0,1.58-.7,1.31.34-.14.51-1.87,1.39-2.38,1.84-.72.64-.81,1.14-1.3,1.72-.29.34-1.23.96-1.27,1.04Z" style="fill:#99211f;"/></g></svg>