<?xml version="1.0" encoding="UTF-8"?><svg id="Layer_2" xmlns="http://www.w3.org/2000/svg" viewBox="0 0 375.11 455.32"><g id="Layer_1-2"><path d="M92.4,390.29c-28,0-54.14-12.76-71.87-33.6-3.42-3.73-6.22-8.09-9.02-12.45,0,0-11.51-20.22-11.51-26.13,0-2.18.62-4.98,3.11-4.98.62,0,1.24,0,1.87.31,9.64,3.11,19.6,7.16,29.87,7.78l8.4.62c4.36.93,4.98,3.11,4.98,7.16,0,2.8-1.56,5.29-1.56,8.09,0,5.29,3.11,12.45,5.6,16.8,9.33,15.87,29.87,17.42,46.36,17.42,25.51,0,48.22-14.93,48.22-42.31,0-21.47-6.53-36.4-30.18-36.4-13.69,0-27.38,4.36-40.45,7.78-6.22,1.56-12.45,3.73-18.98,3.73-19.6,0-40.76-47.29-40.76-64.09,0-45.42,47.29-75.6,88.98-75.6,16.8,0,40.76,4.67,54.45,14.31,2.49,1.87,4.04,4.04,6.22,6.22,1.56,1.56,5.29,3.73,5.29,6.22s-2.18,4.36-4.04,5.29c-4.36,2.18-9.33,3.11-13.69,5.29-7.16,3.42-13.69,8.4-20.85,11.2-.31,0-.93.31-.93.31-5.91,0-7.47-29.25-35.47-29.25-19.91,0-47.29,6.84-47.29,31.73,0,19.6,8.71,38.58,30.8,38.58,9.65,0,18.67-2.49,28-4.67,9.02-2.18,27.07-8.09,35.47-8.09,6.22,0,14.31,10.27,19.6,17.11l2.8,3.73c7.47,9.65,20.54,26.76,20.54,39.2,0,49.47-46.05,88.67-93.96,88.67Z" style="fill:#99211f;"/><path d="M336.02,231c-.62.31-1.25.31-1.87.31-3.42,0-8.09-12.76-9.65-15.56-8.09-13.38-19.6-19.29-34.85-19.29-23.02,0-29.87,25.82-29.87,44.49,0,6.22-1.87,12.13-1.87,18.05,0,3.11,4.67,6.22,7.47,6.22l35.16-.93c4.36,0,8.09-2.18,12.44-2.18h19.29c1.24.93,1.24,2.18,1.24,3.73,0,4.04-7.78,23.33-10.27,26.45h-1.55c-12.13,0-24.27-.31-36.4-.31-7.16,0-14.31.31-21.47.31-4.36,0-5.29,8.71-5.29,16.18,0,4.67.31,8.71.31,10.58,0,13.38-1.24,26.76-1.24,40.45,0,31.73-12.76,62.22-38.27,81.83-3.73,3.11-21.47,14-25.2,14-2.18,0-3.42-2.8-3.42-4.36,0-4.67,33.91-34.54,33.91-69.07,0-26.76-.31-53.51-.31-80.58v-2.49c0-3.11-.31-6.84-3.42-6.84-8.09,0-16.18,2.49-24.27,2.49-5.29,0-7.47-2.8-7.47-8.09,0-6.22,1.87-12.76,3.11-18.98,1.56-1.25,5.6-1.25,7.47-1.25,4.98,0,9.65.62,14.62.62,5.91,0,7.16-2.18,7.16-7.78,0-13.69-2.18-27.69-4.98-40.76l.31-1.56c10.27-12.45,53.2-37.33,68.76-46.36,4.67-2.8,11.51-7.78,17.11-7.78,15.56,0,46.05,18.98,54.45,32.05.93,1.56,2.49,4.67,2.49,6.53,0,4.36-19.6,25.2-23.65,29.87Z" style="fill:#99211f;"/><path d="M231.65.15c.08.05.13.32.51.5s1.29.22,1.51.45c.1.1.28.76.41,1.01.56,1.09.9,2.11,1.28,3.32,2.45,7.8,4.1,15.68,6.86,23.44,1.36,3.81,2.81,7.71,4.26,11.43,1.21,3.1,3.19,6.1,4.75,9.05,1.08.4,2.18.75,3.3,1.03,5.87,1.47,11.93,1.18,17.93,1.69,6.69.56,13.47,1.86,20.17,2.03,1.89.05,3.87.39,5.67.41,1.93.02,3.4-.08,5.4.14,6.39.7,13.53.73,20.05.8,5.48.06,10.26.48,15.71,1.02,3,.3,6.03.57,9.04.72,1.96.1,4.15.68,6.09.69,5.28.03,9.94.26,15.18,1.05.82.12,1.91.04,2.63.21.27.06,1.77.85,1.95,1.03.49.53.25,1.11.35,1.68.06.31.41.63.39.96-.02.29-.33.39-.46.61-1.34,2.39-5.6,5.38-8.11,6.51-2.98,1.33-5.85,2.6-8.75,4.1-.96.49-1.88,1.08-2.84,1.56l3.3.55c.83.48,1.82.47,2.69.66.12.03.17.33.37.47.66.46,1.69.53,2.57,1.22.58.45,1.96,1.82,2.13,2.48.08.32.08,1.24.02,1.58-.03.16-.54,1.76-.6,1.83-.21.28-.78.42-1.15.88-.28.34-.44.94-.69,1.21-.15.17-1.68,1.32-2.04,1.61-4.45,3.52-9.99,5.93-15.3,7.81-4.83,1.71-9.67,3.99-14.42,6.07-1.97.86-4.17,1.7-6.17,2.67-3.4,1.65-6.53,3.54-9.92,5.17-1.4.67-3.06,1.15-4.41,1.95-.38.22-.98.88-1.19.98-.34.15-.88.1-1.34.29-.69.28-1.43.99-2.06,1.32-5.49,2.96-11.51,5.15-17.28,7.75-1.87.85-4.02,1.53-5.95,2.3-1.23.49-2.18,1.02-3.38,1.62-3.73,1.85-7.29,3.85-11.13,5.51-3.76,1.62-7.43,3.67-11.07,5.47-1.86.92-1.91.76-3.27,2.38-1.65,1.97-2.61,4.05-4.01,6.07-.53.77-.1,1.97-.04,2.86.09,1.42.03,2.67.36,4.1.28,1.18.63,2.23.85,3.48.43,2.46,1.17,4.95,1.7,7.36.31,1.42.77,2.96,1,4.42.2,1.27.05,1.58.53,2.86.38,1.02.48,2.24.8,3.26.19.61.38.91.6,1.7.29,1.07,3.45,13.18,2.94,14.47-.65,1.63-3.1,3.95-4.6,4.74-1.89.99-3.99.03-4.98-1.7-.47-.82-3.82-14.47-4.32-15.49-1.02-2.1-1.41-4.5-1.97-6.82-.91-3.75-1.71-7.61-2.53-11.26s-1.01-7.18-1.49-10.95c-.07-.56-.37-1.15-.38-1.66-.02-.75.32-1.52.41-2.17.46-3.09.36-8.3,3.19-10.34,8.88-6.42,18.62-11.6,28.64-16.28l3.91-1.7c-1.51.07-3.04.18-4.56.22-.61.02-1.37-.18-2.02-.1-.26.03-.18.27-.25.27-1.21-.07-3.08-.06-4.17-.29-3.73-.79-7.68-.38-11.54-.91-1.65-.23-1.88-.29-3.42-.78-1.08-.34-1.66-.08-2.63-.62-1.46-.81-2.78-1.73-4.18-2.58-.77-.47-2.66-1.02-3.03-1.85-.07-.16.02-.63.07-.67.04-.03.7.27.95.14l-.14-.4c1.22-.61,2.55.99,3.48,1.19.5.1,1.04-.02,1.56.06.64.1,1.55.55,2.26.71,4.78,1.12,12.44.71,17.36.03,2.86-.39,5.77-.49,8.69-.78,8.9-.87,18.22-3.69,26.86-6.02,1.17-.32,2.51-.4,3.65-.81,2.96-1.06,5.95-2.88,8.81-4.04,2.38-.97,4.59-2.56,6.93-3.76,1.72-.88,2.9-1.32,4.7-2.07.94-.39.27-.43,1.56-.36.06,0,.04-.2.16-.24,1.16-.38,1.4-.3,2.5-.91,1.77-.98,5.23-1.78,7.28-3.08l5.14-1.83-6.27.49c-1.78-.26-3.98-.39-5.31-1.7-.26-.26-1.31-1.53-1.53-1.85-1.33-1.89-.63-4-.42-6.14-1.81.13-3.52-.47-5.25-.77-2.47-.42-5.69-1.19-8.08-1.39-1.39-.12-2.92.08-4.33,0-2.14-.13-4.28-.72-6.49-.82-1.78-.07-3.55.18-5.28.14-3.4-.07-6.6-.88-10.16-.82-.94.02-2.12.59-2.7-.54l.2.68c-1-.12-2.03-.06-3.04-.14-1.9-.14-3.97-.59-5.84-.62-3.8-.08-7.64.22-11.48.08s-7.86.05-11.78-.13c-2.12-.1-4.4-.6-6.49-.65-1.73-.05-3.83.27-5.54.25-2.37-.04-4.79-.6-7.17-.69-2.52-.09-5.1.31-7.59.15-1.81-.12-3.58-.71-5.41-.82-1.43-.08-2.85.15-4.19.15-3.41-.02-6.92-1.15-10.28-.96-2.67.15-4.81.21-7.47.13-4.14-.13-8.28-.47-12.45-.48-2.02,0-3.88-.06-5.92-.34-1.37-.18-3.85-.5-5.1-.86-.57-.17-2.57-1.65-3.2-2.08-1.11-.76-1.39-.78-2.05-2.14-.74-1.53-1.29-3.18-1.89-4.74-.34-.89-1.55-1.99-2.02-2.78-.78-1.31-2.87-6.69-3.6-7.37-1.03-.95-1.7-3.05-2.37-4.46-1.84-3.88-4.24-7.44-5.89-11.43-1.07-2.58-1.98-3.96-3.32-6.28-.21-.37-.77-2.07-1.17-2.08-.62,1.35-.86,2.82-1.33,4.22-.58,1.74-1.7,3.24-2.32,4.99-2.7,7.57-4.83,15.62-7.29,23.29-1.15,3.61-2.23,6.91-2.95,10.72-.59,3.13-1.1,5.79-2.12,8.84-.17.51-.77,1.58-.82,2.02-.07.54.54,1.06-.04,1.59-.12.11-2.12,1.24-2.26,1.27-1.59.31-2.21-2.03-2.9-3-1.26-1.77-3.11-3.54-4.28-5.46-.96-1.57-1.96-3.56-2.86-5.16-2.67-4.75-5.02-9.61-7.69-14.33-.71-1.26-1.38-2.05-2.17-3.24-1.42-2.11-2.14-4.39-3.11-6.63-.1-.22-.31-.44-.36-.59-.11-.31.32-.4-.3-.42-.77-1.24-1.46-2.56-2.23-3.79-.5-.8-.23.08-.25.22-.3,3.2-.94,6.87-.95,10.04,0,.27.29.16.29.26l-.27.47c.66.02.02.33-.07.55s-.06,1.13-.08,1.4c-.02.35-.39,1.08.15,1.03v.13c-.1-.01-.21,0-.26.1s-.28,1.46-.28,1.58c0,.08.25.07.27.16.13.48-.23.43-.26.56-.32,1.04-.6,2.54-.81,3.63-.75,4.09-.87,8.95-1.11,13.24-.34,6.2-.14,12.45-.39,18.67-.01.33-.35.67.13.61.07.23-.24.05-.27.21.06.74.02,1.55,0,2.29-.25,6.37-.15,13.02-.01,19.36.01.66-.35,1.38.29,1.88-.45.11-.1.26-.13.67-.01.22-.18.5-.15.67.01.09.28.08.28.16.01.22-.21,1.43-.29,1.73-.07.28-.42.74-.4.96,0,.07.29.08.28.14-.01.12-.24.37-.25.68-.02.74.31,1.82.35,2.41.02.33-.23.88-.24,1.25-.02.99.08,2,.09,2.94.01,1.1-.37,2.46-.32,3.53.11,2.36.5,4.86.59,7.21.03.72-.19,1.92-.1,2.56.03.26.29.19.28.25-.02.15-.24.37-.25.68-.02.74.24,1.84.25,2.58,0,.44-.23.78-.28,1.21-.09.85.19,1.8.15,2.57-.02.35-.25.63-.29,1.08-.06.77.28,1.4.26,2.02,0,.34-.21.76-.24,1.11-.27,3.46-.18,7.18-.15,10.68.05,4.33.99,8.97.03,13.28-.2.91-.31.87-.58,1.59-.33.89-.55,2.25-1.14,2.92-.73.84-3.33.91-4.44,1.11-2,.36-3.17.9-5.32.48-.15-.03-2.5-1.26-2.61-1.36-.15-.14-1.07-1.53-1.17-1.74-.4-.86.11-1.65.19-2.49.15-1.69-.08-3.48-.15-5.12-.1-2.44-.36-4.9-.48-7.34-.24-5.11.81-9.86.63-15s-.68-10.45-.82-15.69c-.13-4.63-.16-9.16.15-13.79s.33-9.76.65-14.62c.23-3.51.55-7.24.81-10.83.18-2.46-.05-4.9.03-7.42.21-7.09-.47-14.28.81-21.38-.22-3.4.39-6.75.54-10.14.01-.34.37-.81-.13-.75v-.13c.48.06.22-.75.27-1.15.6-4.44,1.39-8.76,1.88-13.27.24-2.2.84-3.06,1.34-5.02.23-.91.18-2.04.34-2.91.48-2.59,1.42-5.19,1.82-7.78.29-1.87.43-3.37.82-5.27.27-1.34-.15-1.2.85-2.41.51-.62.59-.85.96-1.6.65-1.31,1.32-2.41,2.93-2.62.77-.1,1.04.23,1.59.24.61,0,1.2-.35,2.04-.28.32.03,1.84.67,2.27.84.2.08.16.31.33.38.11.04.33-.05.41.02.17.13-.04,1.03.24,1.46.25.39.52.79.78,1.24.84,1.42,2.08,2.59,2.59,4.18,1.01,3.15,1.46,3.97,3.23,6.78s3.1,6.46,4.74,9.61c1.98,3.82,4,7.49,6.33,11.1.17.26.74.68.86.93.17.36.2,1.07.38,1.51.45,1.1,1.69,3.63,2.42,4.48.33.38.55.13.62-.28.1-.53.22-.69.27-.93.04-.19-.18-.56-.1-.91.02-.08.55-1.22.68-1.49.25-.54.56-1.79.82-2.59,1.56-4.81,3.22-9.77,4.93-14.55,1.34-3.74,3.51-7.22,4.66-11.17.88-3.03,1.53-5.38,2.82-8.28.88-1.99,1.94-4.5,3.02-6.31.12-.21.08-.54.21-.63.31-.23,1.37-.32,1.81-.46.9-.3,1.66-1.27,2.74-.86.12.04.11.25.19.26.2.02.5-.16.79-.15.75.02,2.25.55,2.9.9,1.83,1,1.74,1.6,2.6,3.22,1.49,2.8,2.92,5.7,4.28,8.57,2.57,5.43,4.61,11.56,8.48,16.14l3.4,4.85c.24-.12.91-2.89,1.09-3.38.57-1.58,1.43-3.71,2.23-5.18,1.94-3.58,3.65-8.66,5.25-12.65,1.04-2.59,1.74-5.33,2.84-7.77,1.26-2.8,1.83-6.35,3.32-9.07.11-.21.79-1.39.84-1.46.2-.21,1.4-.53,1.72-.51.53.03,1.3.19,1.92.25.74.07,1.89,1.42,2.31,2.03.71,1.06.93,2.32,1.52,3.36.22.4.64.7.79.97.89,1.69,1.08,4.51,2.06,6.2.24.41.64.63.83.92.11.16,1.37,2.64,1.42,2.79.44,1.42,1.55,2.79,2.22,4.26.58,1.28,1.09,2.79,1.68,4.11.95,2.15,1.81,3.85,2.46,6.1.42,1.47,1.18,2.5,1.78,3.76.21.44.3,1.24.49,1.65.07.16.22.13.34.1s.82-1.79.99-2.12c2.24-4.21,4.04-8.17,6.09-12.45,2.36-4.93,4.95-9.84,7.53-14.66.64-1.2,3.36-6.18,4.13-6.83.25-.21.61-.27.85-.46.16-.12.58-.75.75-.81.63-.23.94-.1,1.48.07.09.03.23-.08.28-.05Z" style="fill:#99211f;"/><path d="M150.65,115.41c-.34.47-.68,1.45-1.13,1.78-1.27.95-4.32,1.47-5.82,1.09-.63-.16-4.23-2.29-4.66-2.78-1.79-2.05-1.34-4.73-.23-6.99.13-.27.41-.86.57-1.06.47-.6,2.85-1.68,3.62-1.79.54-.08,1.08.03,1.59-.03.96-.11,2.51-.57,3.44-.19.53.22,3.41,1.89,3.85,2.24.08.07,1.06,1.39,1.09,1.48.4,1.18-.74,4.27-1.44,5.31-.26.39-.72.72-.88.95Z" style="fill:#99211f;"/><path d="M209.02,125.6c-1.33,1.17-3.3,1.74-4.79,2.62-1.72,1.02-3.75,1.81-5.57,2.79-2.64,1.41-5.01,3.14-7.61,4.57-1.26.69-2.62,1.25-3.88,1.95-.76.19-2.13-1.38-2.6-1.97-.52-.66-.84-1.08-.67-1.98.27-1.43,4.2-2.5,5.4-2.99,3.23-1.31,6.36-2.94,9.71-4.22,1.93-.74,4.43-1.33,6.22-2.17.71-.33,1.93-1.42,2.47-1.59.41-.13.85,0,1.26-.09.49-.1,1.51-.63,2.07-.65.31,0,.45.26.66.27s1.2-.68,1.29-.2c.13.7-2.25,1.94-2.77,2.37-.46.38-.82.97-1.2,1.3Z" style="fill:#99211f;"/><path d="M204.79,119.2c-.25.21-.73,1.03-.95,1.18-1.44.96-4.35,1.63-6.02,2.06s-3.64,1.71-5.29,2.42c-3.39,1.46-6.97,2.51-10.41,3.79-.62.23-1.67,1.16-2.37.75-.05-.03-.15-.32-.29-.45-1.12-1-2.43-2.06-1.21-3.63.55-.7,2.39-.99,3.26-1.32,5.5-2.04,11.35-3.27,17.05-4.9,2.68-.77,3.75-1.83,6.79-1.73.34.01.72-.33,1.1.01.9.81-1.26,1.48-1.65,1.81Z" style="fill:#99211f;"/><path d="M212.62,133.12c-.21.37.16.78-.58,1.52-.26.26-2.2,1.76-2.39,1.81-.74.18-.45-.09-1.13.36-3.2,2.12-6.26,5.17-9.47,7.45-.49.34-1.15.56-1.66.91-.81.56-1.63,1.3-2.4,1.94-.56.26-2.09-1.15-2.41-1.65-.48-.75-.52-1.31-.12-2.11.72-1.45,5.02-4.35,6.56-5.35,3.28-2.12,7.09-3.64,10.31-5.66,1.43-.9,2.8-2.05,4.48-2.56.53-.16.83.03,1.27.03.29,0,1.06-.47.88.23-.09.35-1.26.93-1.6,1.24-.48.43-.55.77-.87,1.16-.19.23-.83.65-.86.7Z" style="fill:#99211f;"/></g></svg>