<svg xmlns="http://www.w3.org/2000/svg" version="1.1" xmlns:xlink="http://www.w3.org/1999/xlink" width="1474.31" height="930.71"><svg xmlns="http://www.w3.org/2000/svg" version="1.1" xmlns:xlink="http://www.w3.org/1999/xlink" width="1474.31" height="930.71"><svg id="Layer_2" xmlns="http://www.w3.org/2000/svg" viewBox="0 0 1474.31 930.71"><g id="Layer_1-2"><path d="M745.2.74c.4.24.66,1.64,2.6,2.52s6.56,1.14,7.68,2.28c.51.52,1.42,3.87,2.08,5.14,2.86,5.54,4.58,10.71,6.52,16.86,12.44,39.63,20.81,79.7,34.88,119.13,6.9,19.35,14.28,39.16,21.67,58.08,6.17,15.77,16.21,30.99,24.15,45.98,5.47,2.03,11.09,3.83,16.75,5.26,29.84,7.49,60.65,6.01,91.14,8.58,34,2.87,68.43,9.45,102.51,10.34,9.63.25,19.67,1.97,28.84,2.07,9.82.1,17.29-.38,27.45.74,32.5,3.58,68.74,3.73,101.91,4.07,27.88.29,52.13,2.46,79.86,5.21,15.26,1.51,30.67,2.88,45.93,3.67,9.94.52,21.07,3.46,30.97,3.51,26.84.14,50.54,1.31,77.13,5.36,4.16.63,9.73.22,13.37,1.08,1.35.32,9.01,4.3,9.89,5.24,2.5,2.69,1.26,5.66,1.79,8.52.29,1.56,2.09,3.19,1.99,4.88-.08,1.48-1.69,1.97-2.32,3.11-6.8,12.14-28.47,27.35-41.2,33.06-15.13,6.78-29.71,13.21-44.49,20.84-4.85,2.51-9.53,5.5-14.42,7.93l16.77,2.82c4.22,2.42,9.23,2.37,13.7,3.34.63.14.85,1.68,1.88,2.39,3.38,2.33,8.6,2.68,13.07,6.18,2.93,2.29,9.96,9.25,10.81,12.58.42,1.62.4,6.32.12,8.04-.13.8-2.76,8.93-3.05,9.32-1.08,1.42-3.96,2.14-5.84,4.47-1.4,1.74-2.23,4.77-3.49,6.14-.77.84-8.54,6.72-10.39,8.18-22.6,17.89-50.78,30.13-77.75,39.69-24.56,8.71-49.12,20.3-73.28,30.83-10.02,4.37-21.18,8.64-31.34,13.55-17.29,8.36-33.21,17.99-50.42,26.28-7.1,3.42-15.54,5.83-22.42,9.9-1.92,1.13-4.97,4.48-6.04,4.96-1.73.78-4.48.52-6.79,1.46-3.5,1.43-7.28,5.02-10.46,6.73-27.92,15.07-58.48,26.19-87.81,39.41-9.53,4.3-20.43,7.8-30.25,11.7-6.25,2.49-11.06,5.2-17.2,8.25-18.96,9.41-37.04,19.59-56.58,28-19.1,8.21-37.77,18.67-56.26,27.79-9.44,4.66-9.71,3.85-16.62,12.1-8.39,10.02-13.28,20.56-20.39,30.83-2.71,3.91-.5,10.02-.23,14.55.43,7.22.13,13.55,1.85,20.83,1.42,5.99,3.19,11.35,4.3,17.71,2.18,12.48,5.95,25.17,8.65,37.41,1.58,7.2,3.92,15.05,5.06,22.45.99,6.45.23,8.05,2.67,14.52,1.95,5.16,2.45,11.41,4.05,16.58.95,3.08,1.92,4.6,3.03,8.66,1.49,5.43,3.09,4.97.47,11.55-3.31,8.29-15.76,20.08-23.38,24.1-9.6,5.05-20.29.18-25.3-8.62-2.38-4.18-4.98-11.52-7.5-16.71-5.19-10.66-7.16-22.89-10.03-34.67-4.65-19.06-8.7-38.7-12.88-57.25-4.32-19.2-5.13-36.51-7.59-55.66-.36-2.83-1.86-5.82-1.92-8.45-.09-3.83,1.6-7.74,2.09-11.03,2.33-15.72,1.81-42.18,16.19-52.57,45.14-32.62,94.62-58.94,145.54-82.76l19.87-8.66c-7.7.37-15.45.89-23.16,1.11-3.07.09-6.95-.89-10.25-.49-1.31.16-.93,1.38-1.28,1.36-6.15-.37-15.65-.28-21.21-1.46-18.93-4.01-39.02-1.91-58.63-4.65-8.4-1.17-9.54-1.48-17.38-3.94-5.46-1.72-8.44-.4-13.39-3.15-7.4-4.11-14.12-8.8-21.25-13.09-3.92-2.36-13.53-5.17-15.41-9.4-.37-.83.1-3.2.38-3.41.19-.15,3.55,1.39,4.81.69l-.69-2.05c6.21-3.09,12.94,5.06,17.7,6.03,2.53.51,5.27-.09,7.93.32,3.28.51,7.9,2.77,11.51,3.62,24.28,5.69,63.25,3.59,88.2.17,14.51-1.99,29.33-2.5,44.19-3.96,45.25-4.44,92.6-18.73,136.52-30.6,5.97-1.61,12.76-2.05,18.56-4.13,15.05-5.4,30.22-14.64,44.76-20.54,12.1-4.91,23.34-13.03,35.24-19.11,8.75-4.47,14.74-6.7,23.87-10.51,4.76-1.98,1.36-2.17,7.94-1.82.3.02.22-1.03.83-1.22,5.89-1.92,7.12-1.52,12.72-4.65,8.97-5,26.58-9.04,36.98-15.67l26.11-9.3-31.86,2.48c-9.05-1.32-20.2-1.98-26.96-8.65-1.33-1.31-6.67-7.79-7.8-9.39-6.74-9.61-3.19-20.32-2.16-31.18-9.19.68-17.87-2.41-26.69-3.91-12.56-2.14-28.93-6.07-41.06-7.08-7.08-.59-14.83.43-21.99-.02-10.85-.68-21.73-3.68-32.99-4.15-9.04-.37-18.02.89-26.84.71-17.27-.36-33.55-4.49-51.62-4.15-4.77.09-10.77,2.99-13.73-2.73l1.03,3.44c-5.1-.63-10.34-.31-15.46-.69-9.63-.71-20.19-2.98-29.7-3.17-19.34-.38-38.82,1.12-58.34.42-19.9-.72-39.97.25-59.87-.65-10.79-.49-22.35-3.05-32.98-3.33-8.79-.23-19.45,1.4-28.17,1.26-12.05-.18-24.34-3.04-36.45-3.49-12.82-.48-25.94,1.55-38.57.74-9.22-.59-18.17-3.62-27.49-4.15-7.27-.41-14.47.78-21.31.74-17.31-.11-35.17-5.85-52.27-4.86-13.59.79-24.45,1.08-37.94.64-21.05-.68-42.07-2.41-63.28-2.46-10.27-.02-19.7-.32-30.07-1.71-6.96-.93-19.57-2.53-25.9-4.36-2.91-.85-13.06-8.37-16.26-10.55-5.65-3.86-7.08-3.98-10.42-10.89-3.76-7.77-6.56-16.15-9.58-24.11-1.72-4.53-7.86-10.13-10.26-14.14-3.99-6.67-14.57-34-18.3-37.44-5.25-4.83-8.63-15.5-12.02-22.66-9.33-19.71-21.53-37.79-29.93-58.08-5.41-13.09-10.09-20.1-16.9-31.92-1.07-1.86-3.89-10.52-5.93-10.57-3.13,6.88-4.38,14.34-6.74,21.46-2.93,8.86-8.63,16.48-11.79,25.34-13.72,38.46-24.57,79.4-37.04,118.35-5.87,18.32-11.32,35.12-14.99,54.46-3.01,15.89-5.57,29.44-10.75,44.94-.87,2.62-3.89,8.05-4.18,10.27-.36,2.74,2.76,5.39-.18,8.06-.61.55-10.8,6.31-11.48,6.44-8.08,1.56-11.22-10.32-14.73-15.25-6.41-9-15.79-17.98-21.75-27.73-4.88-7.97-9.98-18.1-14.54-26.21-13.58-24.12-25.52-48.82-39.07-72.82-3.63-6.43-7-10.42-11.05-16.45-7.19-10.72-10.87-22.33-15.81-33.69-.49-1.13-1.58-2.23-1.85-3.01-.56-1.58,1.63-2.03-1.54-2.15-3.9-6.3-7.41-13.01-11.35-19.29-2.54-4.05-1.19.4-1.26,1.12-1.51,16.29-4.75,34.91-4.82,51.01,0,1.37,1.46.83,1.45,1.33l-1.39,2.4c3.35.12.12,1.69-.36,2.78s-.32,5.72-.41,7.11c-.12,1.77-2.01,5.47.76,5.25v.67c-.51-.08-1.08,0-1.34.51s-1.44,7.43-1.41,8.05c.02.42,1.26.34,1.4.82.69,2.43-1.15,2.21-1.34,2.83-1.63,5.3-3.07,12.91-4.1,18.47-3.84,20.79-4.44,45.5-5.64,67.31-1.73,31.51-.71,63.28-2,94.88-.07,1.67-1.79,3.4.68,3.1.34,1.16-1.24.27-1.37,1.08.31,3.76.12,7.86-.03,11.66-1.27,32.37-.77,66.15-.07,98.37.07,3.38-1.76,7.03,1.47,9.54-2.3.54-.53,1.3-.64,3.4-.06,1.13-.91,2.53-.78,3.4.07.46,1.42.39,1.44.81.07,1.13-1.09,7.27-1.47,8.82-.36,1.44-2.13,3.76-2.04,4.86.03.38,1.46.4,1.43.69-.06.62-1.23,1.9-1.26,3.45-.08,3.78,1.6,9.27,1.76,12.24.09,1.7-1.16,4.49-1.2,6.38-.11,5.06.42,10.18.47,14.95.06,5.57-1.87,12.49-1.62,17.92.57,12,2.54,24.69,2.99,36.63.14,3.65-.95,9.76-.51,13.01.18,1.32,1.47.98,1.43,1.29-.11.78-1.22,1.88-1.25,3.45-.08,3.78,1.22,9.36,1.28,13.11.04,2.26-1.17,3.97-1.4,6.15-.47,4.33.96,9.15.74,13.06-.1,1.79-1.27,3.18-1.47,5.47-.33,3.92,1.4,7.1,1.34,10.28-.03,1.7-1.08,3.85-1.22,5.65-1.35,17.58-.93,36.47-.74,54.26.24,22,5.05,45.57.13,67.51-1.04,4.62-1.56,4.43-2.93,8.07-1.7,4.53-2.78,11.41-5.78,14.85-3.72,4.25-16.94,4.65-22.55,5.64-10.19,1.81-16.11,4.56-27.02,2.43-.75-.15-12.69-6.38-13.24-6.91-.74-.72-5.45-7.8-5.94-8.84-2.04-4.38.57-8.38.96-12.66.78-8.59-.41-17.69-.76-26.04-.52-12.4-1.84-24.9-2.42-37.32-1.21-25.95,4.14-50.12,3.21-76.23-.95-26.69-3.47-53.13-4.19-79.75-.64-23.55-.79-46.55.78-70.09s1.69-49.59,3.31-74.32c1.17-17.83,2.78-36.78,4.09-55.02.9-12.48-.24-24.91.15-37.73,1.09-36.02-2.38-72.58,4.09-108.66-1.12-17.29,1.99-34.3,2.74-51.52.07-1.72,1.91-4.11-.68-3.8v-.67c2.46.31,1.1-3.8,1.38-5.85,3.07-22.58,7.08-44.5,9.54-67.47,1.2-11.16,4.26-15.53,6.79-25.53,1.16-4.6.9-10.34,1.72-14.78,2.44-13.18,7.23-26.39,9.27-39.55,1.47-9.5,2.18-17.12,4.15-26.78,1.39-6.83-.74-6.11,4.31-12.22,2.61-3.16,3-4.3,4.89-8.15,3.29-6.68,6.71-12.24,14.87-13.33,3.93-.52,5.27,1.19,8.06,1.21,3.12.02,6.1-1.8,10.36-1.41,1.63.15,9.34,3.39,11.54,4.29.99.41.82,1.6,1.7,1.92.55.2,1.7-.24,2.1.08.84.66-.22,5.22,1.21,7.44,1.26,1.97,2.62,4.03,3.97,6.31,4.28,7.22,10.55,13.14,13.16,21.22,5.15,15.99,7.43,20.2,16.4,34.45,9.37,14.89,15.77,32.82,24.07,48.84,10.06,19.43,20.32,38.05,32.15,56.39.86,1.34,3.77,3.48,4.37,4.73.87,1.81,1.04,5.43,1.96,7.67,2.3,5.61,8.57,18.46,12.28,22.79,1.67,1.94,2.79.65,3.18-1.44.5-2.72,1.12-3.49,1.38-4.72.21-.98-.92-2.86-.53-4.6.09-.42,2.79-6.19,3.44-7.57,1.29-2.72,2.86-9.12,4.17-13.15,7.94-24.47,16.38-49.66,25.06-73.95,6.79-19.01,17.84-36.68,23.67-56.77,4.48-15.41,7.79-27.32,14.32-42.06,4.49-10.13,9.84-22.89,15.37-32.09.63-1.04.39-2.72,1.05-3.21,1.58-1.17,6.98-1.62,9.19-2.35,4.55-1.51,8.42-6.48,13.93-4.39.59.22.55,1.29.98,1.34,1.01.12,2.53-.79,4-.75,3.81.1,11.45,2.78,14.75,4.57,9.31,5.08,8.83,8.11,13.22,16.35,7.58,14.25,14.82,28.99,21.74,43.58,13.08,27.6,23.41,58.73,43.09,82.05l17.25,24.67c1.22-.61,4.63-14.7,5.52-17.17,2.9-8.04,7.27-18.84,11.32-26.32,9.85-18.19,18.53-44.03,26.66-64.27,5.28-13.14,8.84-27.09,14.43-39.49,6.41-14.22,9.3-32.29,16.87-46.09.58-1.06,4-7.09,4.29-7.4,1-1.05,7.11-2.69,8.73-2.6,2.68.15,6.6.94,9.75,1.25,3.77.37,9.6,7.19,11.72,10.34,3.62,5.37,4.74,11.78,7.7,17.05,1.14,2.03,3.27,3.56,4,4.94,4.5,8.58,5.48,22.94,10.44,31.5,1.21,2.08,3.25,3.18,4.24,4.7.54.82,6.98,13.4,7.22,14.16,2.22,7.21,7.88,14.16,11.3,21.64,2.96,6.5,5.56,14.2,8.52,20.91,4.8,10.92,9.21,19.56,12.48,30.98,2.15,7.49,5.99,12.73,9.06,19.13,1.08,2.25,1.54,6.28,2.49,8.39.36.8,1.14.68,1.71.5s4.15-9.11,5.04-10.78c11.41-21.39,20.55-41.54,30.94-63.26,12-25.07,25.15-50.02,38.26-74.5,3.27-6.1,17.08-31.4,20.97-34.73,1.26-1.08,3.11-1.36,4.34-2.34.8-.63,2.96-3.8,3.8-4.1,3.22-1.16,4.76-.51,7.54.37.43.14,1.19-.4,1.43-.26Z" style="fill:#8d2814;"></path><path d="M333.58,586.53c-1.73,2.38-3.45,7.36-5.73,9.06-6.45,4.81-21.95,7.49-29.58,5.53-3.2-.82-21.51-11.65-23.68-14.14-9.09-10.4-6.79-24.03-1.19-35.51.66-1.35,2.09-4.38,2.87-5.38,2.41-3.05,14.48-8.53,18.4-9.11,2.74-.41,5.48.14,8.08-.17,4.86-.58,12.77-2.91,17.49-.97,2.69,1.1,17.35,9.62,19.56,11.38.42.34,5.41,7.06,5.56,7.5,2.03,5.98-3.76,21.71-7.32,27-1.34,2-3.64,3.65-4.47,4.81Z" style="fill:#8d2814;"></path><path d="M630.23,638.33c-6.75,5.95-16.79,8.82-24.35,13.31-8.74,5.2-19.04,9.22-28.29,14.16-13.43,7.17-25.46,15.94-38.66,23.23-6.4,3.53-13.29,6.38-19.7,9.9-3.85.97-10.83-7.02-13.23-10.03-2.65-3.33-4.27-5.48-3.41-10.08,1.36-7.26,21.35-12.7,27.46-15.17,16.41-6.65,32.34-14.96,49.36-21.47,9.82-3.75,22.49-6.78,31.59-11.05,3.61-1.7,9.79-7.2,12.56-8.07,2.1-.67,4.3-.02,6.42-.45,2.51-.52,7.68-3.21,10.55-3.29,1.59-.04,2.3,1.31,3.35,1.35,1.07.04,6.08-3.45,6.54-.99.67,3.57-11.44,9.86-14.09,12.03-2.33,1.92-4.19,4.93-6.1,6.62Z" style="fill:#8d2814;"></path><path d="M608.7,605.81c-1.28,1.08-3.69,5.21-4.85,5.98-7.31,4.89-22.13,8.28-30.62,10.47-8.63,2.23-18.5,8.68-26.89,12.3-17.21,7.43-35.41,12.75-52.92,19.28-3.17,1.18-8.47,5.9-12.05,3.82-.26-.15-.77-1.65-1.48-2.28-5.71-5.08-12.34-10.46-6.13-18.44,2.78-3.57,12.12-5.04,16.55-6.69,27.97-10.39,57.69-16.6,86.65-24.89,13.64-3.91,19.08-9.28,34.51-8.81,1.73.05,3.67-1.68,5.59.05,4.59,4.14-6.43,7.54-8.37,9.19Z" style="fill:#8d2814;"></path><path d="M648.5,676.52c-1.05,1.89.79,3.96-2.96,7.7-1.31,1.3-11.17,8.94-12.14,9.18-3.77.93-2.28-.47-5.72,1.81-16.27,10.79-31.81,26.29-48.15,37.84-2.47,1.74-5.87,2.85-8.43,4.63-4.13,2.87-8.3,6.61-12.17,9.86-2.86,1.32-10.64-5.84-12.26-8.36-2.44-3.81-2.67-6.66-.63-10.74,3.66-7.36,25.51-22.12,33.33-27.18,16.69-10.79,36.05-18.49,52.38-28.76,7.28-4.58,14.23-10.4,22.75-13,2.71-.83,4.22.16,6.47.13,1.5-.02,5.41-2.39,4.47,1.15-.46,1.76-6.4,4.74-8.16,6.3-2.46,2.18-2.77,3.91-4.43,5.88-.98,1.16-4.22,3.3-4.36,3.54Z" style="fill:#8d2814;"></path></g></svg></svg><style>@media (prefers-color-scheme: light) { :root { filter: none; } }
@media (prefers-color-scheme: dark) { :root { filter: none; } }
</style></svg>